<?xml version="1.0" encoding="UTF-8" standalone="no"?>
<!-- Created with Inkscape (http://www.inkscape.org/) -->

<svg
   width="800"
   height="600"
   viewBox="0 0 211.66666 158.75"
   version="1.1"
   id="svg5"
   inkscape:version="1.1.1 (3bf5ae0d25, 2021-09-20)"
   sodipodi:docname="dessin-2.svg"
   xmlns:inkscape="http://www.inkscape.org/namespaces/inkscape"
   xmlns:sodipodi="http://sodipodi.sourceforge.net/DTD/sodipodi-0.dtd"
   xmlns="http://www.w3.org/2000/svg"
   xmlns:svg="http://www.w3.org/2000/svg">
  <sodipodi:namedview
     id="namedview7"
     pagecolor="#ffffff"
     bordercolor="#666666"
     borderopacity="1.0"
     inkscape:pageshadow="2"
     inkscape:pageopacity="0.0"
     inkscape:pagecheckerboard="0"
     inkscape:document-units="mm"
     showgrid="false"
     inkscape:zoom="0.69664703"
     inkscape:cx="-171.53594"
     inkscape:cy="328.7174"
     inkscape:window-width="1920"
     inkscape:window-height="986"
     inkscape:window-x="-11"
     inkscape:window-y="-11"
     inkscape:window-maximized="1"
     inkscape:current-layer="layer1"
     units="px" />
  <defs
     id="defs2">
    <rect
       x="-252.6387"
       y="532.5509"
       width="4.3063416"
       height="68.901466"
       id="rect6047" />
    <rect
       x="-529.67999"
       y="525.37366"
       width="297.13757"
       height="64.595123"
       id="rect2781" />
  </defs>
  <g
     inkscape:label="Calque 1"
     inkscape:groupmode="layer"
     id="layer1">
    <path
       sodipodi:type="star"
       style="fill:#008000;fill-rule:evenodd"
       id="path322"
       inkscape:flatsided="false"
       sodipodi:sides="5"
       sodipodi:cx="-536.85724"
       sodipodi:cy="287.08942"
       sodipodi:r1="273.30099"
       sodipodi:r2="136.6505"
       sodipodi:arg1="0.52240343"
       sodipodi:arg2="1.150722"
       inkscape:rounded="0"
       inkscape:randomized="0"
       d="m -300.00846,423.4569 -181.11884,-11.59757 -112.23282,142.62653 -44.93886,-175.83809 -170.32774,-62.66574 153.34509,-97.07636 6.9645,-181.356081 139.71134,115.841611 174.63203,-49.41849 -66.99874,168.67041 z"
       transform="matrix(0.26458333,0,0,0.26458333,203.57033,16.331202)"
       inkscape:transform-center-x="4.619716"
       inkscape:transform-center-y="2.3622805" />
    <path
       sodipodi:type="star"
       style="fill:#ffff00;fill-rule:evenodd"
       id="path390"
       inkscape:flatsided="false"
       sodipodi:sides="5"
       sodipodi:cx="-116.27122"
       sodipodi:cy="298.573"
       sodipodi:r1="222.16064"
       sodipodi:r2="111.08033"
       sodipodi:arg1="2.5446298"
       sodipodi:arg2="3.1729483"
       inkscape:rounded="0"
       inkscape:randomized="0"
       d="m -300.00845,423.45687 72.7115,-128.3663 -64.52382,-132.67082 144.5527,29.48538 106.238493,-102.363344 16.626979,146.589264 130.182818,69.4068 -134.276654,61.11177 -25.781086,145.25911 -99.61452,-108.82012 z"
       transform="matrix(0.26458333,0,0,0.26458333,185.63871,-5.5900771)"
       inkscape:transform-center-x="-5.0686514"
       inkscape:transform-center-y="0.56945084" />
    <path
       sodipodi:type="star"
       style="fill:#ff8080;fill-rule:evenodd"
       id="path436"
       inkscape:flatsided="false"
       sodipodi:sides="5"
       sodipodi:cx="-317.23383"
       sodipodi:cy="377.52261"
       sodipodi:r1="29.592501"
       sodipodi:r2="14.796251"
       sodipodi:arg1="-2.896614"
       sodipodi:arg2="-2.2682955"
       inkscape:rounded="0"
       inkscape:randomized="0"
       d="m -345.94277,370.34538 19.20527,-4.16337 7.45808,-18.18111 9.89435,16.97874 19.59594,1.47479 -13.09022,14.6568 4.65287,19.09258 -17.98455,-7.92034 -16.7203,10.32508 1.97516,-19.55184 z"
       transform="matrix(0.26458333,0,0,0.26458333,194.45524,-22.787724)"
       inkscape:transform-center-x="0.16724827"
       inkscape:transform-center-y="-0.58681741" />
    <path
       sodipodi:type="star"
       style="fill:#ff8080;fill-rule:evenodd"
       id="path526"
       inkscape:flatsided="false"
       sodipodi:sides="5"
       sodipodi:cx="-391.87708"
       sodipodi:cy="38.757072"
       sodipodi:r1="159.80595"
       sodipodi:r2="79.902977"
       sodipodi:arg1="1.9095907"
       sodipodi:arg2="2.5379092"
       inkscape:rounded="0"
       inkscape:randomized="0"
       d="m -444.98862,189.47902 -12.6686,-105.362728 -93.97732,-49.295658 96.2911,-44.6074232 17.84237,-104.6109408 72.17977,77.793826 105.00451,-15.357459 -51.68155,92.686652 47.05399,95.119511 -104.12072,-20.51033 z"
       transform="matrix(0.26458333,0,0,0.26458333,198.68906,27.268517)"
       inkscape:transform-center-x="3.7302508"
       inkscape:transform-center-y="-0.3218461" />
    <path
       sodipodi:type="spiral"
       style="fill:none;fill-rule:evenodd;stroke:#000000"
       id="path649"
       sodipodi:cx="-160.77008"
       sodipodi:cy="235.41333"
       sodipodi:expansion="1"
       sodipodi:revolution="3"
       sodipodi:radius="30.987045"
       sodipodi:argument="-17.512503"
       sodipodi:t0="0"
       d="m -160.77008,235.41333 c 0.35985,1.51139 -1.85979,1.23074 -2.51203,0.5981 -1.76755,-1.71442 -0.48294,-4.53925 1.31582,-5.62217 3.21756,-1.93707 7.23746,0.0778 8.73231,3.22976 2.19375,4.6256 -0.63336,9.98014 -5.14369,11.84244 -6.01156,2.48215 -12.73965,-1.18536 -14.95257,-7.05762 -2.78474,-7.38963 1.73527,-15.50744 8.97154,-18.06271 8.7641,-3.09477 18.27994,2.28393 21.17285,10.88548 3.40918,10.13663 -2.83178,21.05538 -12.79941,24.28298 -11.50802,3.72639 -23.83279,-3.3791 -27.39311,-14.71334 -4.04547,-12.87868 3.92604,-26.61157 16.62726,-30.50325 14.24885,-4.36586 29.39137,4.47273 33.61339,18.5412 4.68724,15.61867 -5.01921,32.17191 -20.45513,36.72352"
       transform="matrix(0.26458333,0,0,0.26458333,77.858057,34.561381)" />
    <path
       sodipodi:type="spiral"
       style="fill:none;fill-rule:evenodd;stroke:#000000"
       id="path651"
       sodipodi:cx="-66.030571"
       sodipodi:cy="269.86407"
       sodipodi:expansion="1"
       sodipodi:revolution="3"
       sodipodi:radius="40.625946"
       sodipodi:argument="-17.837358"
       sodipodi:t0="0"
       d="m -66.030571,269.86407 c 1.079565,1.72731 -1.795754,2.30743 -2.870895,1.79431 -2.913566,-1.39051 -2.499512,-5.43789 -0.717721,-7.5361 3.187208,-3.75319 9.02502,-2.93185 12.201302,0.35887 4.661321,4.82927 3.389298,12.66525 -1.435455,16.86651 -6.430637,5.59961 -16.324905,3.85816 -21.531707,-2.51205 -6.55223,-8.01626 -4.333102,-19.99396 3.588629,-26.19691 9.594279,-7.51259 23.668352,-4.81157 30.862114,4.66522 8.477598,11.16807 5.292268,27.34606 -5.741805,35.52732 -12.739273,9.44558 -31.025991,5.77445 -40.192519,-6.8184 -10.415592,-14.30878 -6.257667,-34.70747 7.894979,-44.85772 15.87713,-11.38704 38.390097,-6.74163 49.522926,8.97157 12.359549,17.44463 7.226167,42.07357 -10.048155,54.18813"
       transform="matrix(0.26458333,0,0,0.26458333,163.31202,58.488491)" />
    <path
       sodipodi:type="spiral"
       style="fill:none;fill-rule:evenodd;stroke:#000000"
       id="path653"
       sodipodi:cx="-195.22081"
       sodipodi:cy="317.23383"
       sodipodi:expansion="1"
       sodipodi:revolution="3"
       sodipodi:radius="32.543839"
       sodipodi:argument="-16.430943"
       sodipodi:t0="0"
       d="m -195.22081,317.23383 c -1.22351,1.07956 -2.05887,-1.11665 -1.79431,-2.03355 0.71694,-2.48476 3.96971,-2.68811 5.86141,-1.55507 3.38381,2.02673 3.49999,6.7478 1.31583,9.68927 -3.20536,4.31671 -9.56458,4.33867 -13.51713,1.07658 -5.26813,-4.34785 -5.18894,-12.3952 -0.83734,-17.34499 5.47603,-6.2288 15.23246,-6.04522 21.17284,-0.5981 7.1946,6.5972 6.905,18.07347 0.35886,25.00071 -7.7144,8.1635 -20.91681,7.76697 -28.82856,0.11962 -9.13443,-8.82918 -8.63042,-23.76172 0.11962,-32.65643 9.94235,-10.10673 26.60771,-9.49487 36.48428,0.35887 11.08003,11.05441 10.36008,29.4545 -0.5981,40.31214 -12.16567,12.05404 -32.3019,11.22584 -44.14,-0.83735"
       transform="matrix(0.26458333,0,0,0.26458333,210.02685,-11.393862)" />
    <text
       xml:space="preserve"
       transform="matrix(0.30453685,0,0,0.26458333,240.52824,-39.118926)"
       id="text2779"
       style="font-style:italic;font-variant:normal;font-weight:bold;font-stretch:normal;font-size:40px;line-height:1.25;font-family:'Bodoni MT';-inkscape-font-specification:'Bodoni MT, Bold Italic';font-variant-ligatures:normal;font-variant-caps:normal;font-variant-numeric:normal;font-variant-east-asian:normal;white-space:pre;shape-inside:url(#rect2781);fill:#000000;fill-opacity:1;stroke:none"><tspan
         x="-529.67969"
         y="559.2831"
         id="tspan9739">Bonne année</tspan></text>
    <text
       xml:space="preserve"
       transform="scale(0.26458333)"
       id="text6045"
       style="font-style:normal;font-weight:normal;font-size:40px;line-height:1.25;font-family:sans-serif;white-space:pre;shape-inside:url(#rect6047);fill:#000000;fill-opacity:1;stroke:none" />
    <path
       sodipodi:type="spiral"
       style="fill:none;fill-rule:evenodd;stroke:#000000"
       id="path9562"
       sodipodi:cx="-624.41949"
       sodipodi:cy="163.64098"
       sodipodi:expansion="1"
       sodipodi:revolution="3"
       sodipodi:radius="52.01392"
       sodipodi:argument="-18.161884"
       sodipodi:t0="0"
       d="m -624.41949,163.64098 c 2.01518,1.65533 -1.23714,3.53311 -2.75128,3.34937 -4.10323,-0.49793 -5.25308,-5.57839 -3.94748,-8.85192 2.33542,-5.85559 9.75481,-7.24214 14.95258,-4.54558 7.62794,3.9573 9.28331,13.98541 5.14368,21.05323 -5.51749,9.42028 -18.23494,11.34629 -27.15388,5.74177 -11.22358,-7.05271 -13.42048,-22.49339 -6.33988,-33.25452 8.57555,-13.03318 26.75687,-15.50113 39.35518,-6.93798 14.84667,10.09136 17.58583,31.02346 7.53608,45.45583 -11.60283,16.66273 -35.29215,19.67324 -51.55648,8.13418 -18.48056,-13.11141 -21.76255,-39.56231 -8.73228,-57.65713 14.61798,-20.29966 43.83353,-23.85323 63.75778,-9.33039 22.1197,16.12311 25.94494,48.10556 9.92849,69.85844"
       transform="matrix(0.26458333,0,0,0.26458333,213.06522,-28.86445)" />
    <path
       sodipodi:type="spiral"
       style="fill:none;fill-rule:evenodd;stroke:#000000"
       id="path9564"
       sodipodi:cx="-281.34766"
       sodipodi:cy="177.99545"
       sodipodi:expansion="1"
       sodipodi:revolution="3"
       sodipodi:radius="35.45293"
       sodipodi:argument="-18.476568"
       sodipodi:t0="0"
       d="m -281.34766,177.99545 c 1.65534,0.64774 -0.0564,2.55093 -1.07658,2.75128 -2.76449,0.54292 -4.58156,-2.50732 -4.42596,-4.90445 0.27832,-4.2879 4.79456,-6.75182 8.7323,-6.10065 5.77879,0.95562 8.9673,7.10595 7.77534,12.56016 -1.5887,7.26962 -9.42498,11.20091 -16.38802,9.45003 -8.76228,-2.20329 -13.44365,-11.74745 -11.12472,-20.21588 2.80853,-10.25641 14.0718,-15.69163 24.04374,-12.7994 11.75158,3.40839 17.94292,16.39732 14.47409,27.8716 -4.00489,13.2475 -18.72363,20.19639 -31.69945,16.14878 -14.74396,-4.59916 -22.45141,-21.05049 -17.82347,-35.52732 5.19184,-16.24082 23.37774,-24.70754 39.35517,-19.49816 17.73798,5.7834 26.96451,25.70531 21.17285,43.18304"
       transform="matrix(0.26458333,0,0,0.26458333,213.06522,-28.86445)" />
    <path
       sodipodi:type="spiral"
       style="fill:none;fill-rule:evenodd;stroke:#000000"
       id="path9566"
       sodipodi:cx="-509.58374"
       sodipodi:cy="653.12848"
       sodipodi:expansion="1"
       sodipodi:revolution="3"
       sodipodi:radius="56.147823"
       sodipodi:argument="-18.282827"
       sodipodi:t0="0"
       d="m -509.58374,653.12848 c 2.37504,1.51139 -0.86556,3.94718 -2.51203,3.94748 -4.46183,8.2e-4 -6.35567,-5.29361 -5.38293,-8.97154 1.74,-6.57896 9.50997,-9.03105 15.43105,-6.81839 8.68942,3.24718 11.76934,13.77763 8.25384,21.89057 -4.68562,10.81327 -18.0627,14.53346 -28.35008,9.68929 -12.94562,-6.09591 -17.31075,-22.35589 -11.12474,-34.80959 7.49209,-15.0831 26.65362,-20.09562 41.2691,-12.56019 17.22384,8.88024 22.88524,30.95416 13.99564,47.72861 -10.26339,19.36676 -35.25659,25.67803 -54.18812,15.43109 -21.51121,-11.64322 -28.47304,-39.56034 -16.86654,-60.64763 13.02074,-23.65675 43.86506,-31.26967 67.10714,-18.302 25.80311,14.39658 34.06751,48.17052 19.73745,73.56666"
       transform="matrix(0.26458333,0,0,0.26458333,213.06522,-28.86445)" />
    <path
       sodipodi:type="spiral"
       style="fill:none;fill-rule:evenodd;stroke:#000000"
       id="path9634"
       sodipodi:cx="-449.29495"
       sodipodi:cy="215.31708"
       sodipodi:expansion="1"
       sodipodi:revolution="3"
       sodipodi:radius="100.49155"
       sodipodi:argument="-18.86384"
       sodipodi:t0="0"
       d="m -449.29495,215.31708 c 5.03797,-0.072 2.58257,6.75558 0.11961,8.37344 -6.67445,4.3843 -14.70877,-1.67616 -16.86649,-8.13421 -3.85967,-11.55193 5.35602,-22.8533 16.38803,-25.35956 16.18992,-3.67803 31.14233,9.0508 33.85261,24.64186 3.61238,20.78045 -12.74626,39.48713 -32.89568,42.34567 -25.35599,3.59719 -47.85959,-16.44095 -50.83873,-41.14951 -3.60814,-29.92537 20.13498,-56.24784 49.40334,-59.33178 34.49174,-3.63432 64.64598,23.82855 67.82484,57.65716 3.67011,39.05647 -27.52183,73.05072 -65.91099,76.3179 -43.62021,3.71237 -81.46008,-31.2149 -84.81095,-74.16481 -3.75917,-48.18332 34.90783,-89.87281 82.41863,-93.30402 52.746,-3.80928 98.28807,38.60067 101.79707,90.67247"
       transform="matrix(0.26458333,0,0,0.26458333,213.06522,-28.86445)" />
  </g>
</svg>
